<svg width="94" height="94" viewBox="0 0 94 94" fill="none" xmlns="http://www.w3.org/2000/svg">
<g clip-path="url(#clip0)">
<path d="M63.2837 47C63.2837 47.7604 63.9002 48.377 64.6606 48.377L66.1316 48.377C66.892 48.377 67.5085 47.7604 67.5085 47C67.5085 46.2396 66.892 45.6231 66.1316 45.6231L64.6606 45.6231C63.9002 45.6231 63.2837 46.2396 63.2837 47Z" fill="#5DADE2"/>
<path d="M52.1147 5.91971C49.9562 6.10606 48.0254 7.13051 46.6047 8.66609C41.4215 7.26344 35.4187 7.00493 30.3739 7.98972C24.3348 9.16858 20.3642 11.9021 19.1938 15.6867C18.9781 16.384 18.8446 17.0646 18.7873 17.7257C18.3821 17.6835 17.9744 17.66 17.5659 17.66C11.1261 17.66 5.88693 22.8992 5.88693 29.3389C5.88693 30.0114 5.94697 30.6749 6.05804 31.3254C2.49339 32.471 6.23629e-07 35.8163 5.78019e-07 39.6411C5.41197e-07 42.729 1.61195 45.4458 4.03704 46.9997C1.61195 48.5535 4.39342e-07 51.2703 4.0252e-07 54.3582C3.56914e-07 58.1826 2.49284 61.5277 6.05713 62.6735C5.9466 63.3234 5.88693 63.9867 5.88693 64.6602C5.88693 71.1001 11.1261 76.3391 17.5659 76.3391C17.9718 76.3391 18.3796 76.3174 18.7829 76.2756C18.8422 76.9334 18.9774 77.6121 19.1938 78.3124C20.3642 82.097 24.3348 84.8305 30.3739 86.0094C35.393 86.989 41.3607 86.739 46.5258 85.3552C48.1203 87.0509 50.3812 88.1128 52.8867 88.1128C55.881 88.1128 58.6149 86.5963 60.2081 84.147C61.5891 84.8191 63.1037 85.1694 64.6604 85.1694C69.3039 85.1694 73.2302 82.0516 74.4631 77.8003C74.6296 77.8066 74.7961 77.8108 74.9622 77.8108C82.2135 77.8108 88.1129 71.9114 88.1129 64.6602C88.1129 63.5628 87.9715 62.4816 87.707 61.4368C91.3006 60.6523 94 57.4475 94 53.6223C94 50.871 92.6036 48.4397 90.4823 46.9995C92.6034 45.5594 94 43.1283 94 40.3768C94 36.5516 91.3006 33.3466 87.7073 32.5625C87.9719 31.5176 88.1133 30.4365 88.1133 29.3391C88.1133 22.0877 82.2138 16.1885 74.9626 16.1885C74.7977 16.1885 74.6323 16.1925 74.4671 16.1988C73.3586 12.4074 70.0096 9.44379 66.0341 8.92037C64.0202 8.65525 61.9998 8.98499 60.209 9.85339C58.4719 7.18118 55.3866 5.63752 52.1147 5.91971ZM58.3988 12.2937C58.56 12.6747 58.8838 12.9629 59.2808 13.0789C59.6777 13.195 60.1058 13.1263 60.4468 12.8919C61.966 11.8476 63.8227 11.407 65.6746 11.6508C68.9261 12.0787 71.6043 14.7449 72.0429 17.9903C72.241 19.4552 72.0275 20.8789 71.4275 22.1665C70.7715 21.8472 70.0748 21.6098 69.3502 21.4626C68.6049 21.3111 67.8779 21.7925 67.7266 22.5377C67.5755 23.2831 68.0565 24.0099 68.8018 24.1612C69.9514 24.3947 70.9997 24.9591 71.8336 25.793C74.1658 28.1252 74.1658 31.9201 71.8336 34.2523C71.2959 34.79 71.2959 35.6619 71.8336 36.1995C72.3714 36.7372 73.2433 36.7372 73.781 36.1995C75.484 34.4964 76.3355 32.2595 76.3355 30.0225C76.3355 27.7854 75.484 25.5485 73.781 23.8454C73.7557 23.8201 73.7294 23.7959 73.7037 23.7709C74.4676 22.3104 74.8662 20.681 74.8662 19.0204C74.8662 18.9953 74.8651 18.9701 74.8649 18.9451C74.8974 18.9448 74.9299 18.942 74.9624 18.942C80.6951 18.942 85.3592 23.606 85.3592 29.3387C85.3592 32.3203 84.0758 35.1627 81.8384 37.1373C81.2681 37.6405 81.2138 38.5105 81.717 39.0808C82.2203 39.651 83.0903 39.7054 83.6606 39.2021C84.9518 38.0626 85.9883 36.693 86.7374 35.1838C89.282 35.5437 91.2461 37.7347 91.2461 40.3768C91.2461 43.2693 88.8928 45.6226 86.0003 45.6226L72.0189 45.6226C71.2584 45.6226 70.6419 46.2391 70.6419 46.9995C70.6419 47.76 71.2584 48.3765 72.0189 48.3765L73.8858 48.3765C71.8918 50.2407 70.6421 52.8913 70.6421 55.8299C70.6421 55.8616 70.6447 55.893 70.645 55.9246L69.0757 55.9246C65.5979 55.9246 62.4531 57.9851 61.064 61.1739C60.7604 61.8712 61.0793 62.6825 61.7765 62.9863C62.4736 63.29 63.2851 62.9711 63.5888 62.274C64.5402 60.09 66.6941 58.6787 69.0757 58.6787L71.0508 58.6787C71.7143 60.9664 73.1638 62.9788 75.2053 64.3359C75.8385 64.7569 76.6934 64.5847 77.1143 63.9515C77.5353 63.3181 77.3631 62.4636 76.7299 62.0425C74.6424 60.6549 73.3962 58.3326 73.3962 55.83C73.3962 51.7203 76.7398 48.3767 80.8495 48.3767L86.0005 48.3767C88.893 48.3767 91.2463 50.73 91.2463 53.6225C91.2463 56.2648 89.2822 58.4558 86.7378 58.8153C85.9887 57.3061 84.9521 55.9363 83.6609 54.797C83.0909 54.2937 82.2206 54.3481 81.7174 54.9183C81.2142 55.4884 81.2685 56.3588 81.8388 56.8618C84.0762 58.8364 85.3595 61.6788 85.3595 64.6603C85.3595 70.3932 80.6955 75.0571 74.9628 75.0571C74.9305 75.0571 74.898 75.0543 74.8657 75.0541C74.8659 75.0235 74.8681 74.9932 74.8681 74.9623C74.8681 72.9443 74.2798 70.9925 73.1667 69.3181C72.7457 68.6847 71.8911 68.5127 71.2577 68.9337C70.6245 69.3547 70.4523 70.2093 70.8732 70.8427C71.6851 72.0639 72.1142 73.4884 72.1142 74.9623C72.1142 79.0721 68.7705 82.4157 64.6608 82.4157C63.1495 82.4157 61.6923 81.9633 60.447 81.1076C60.1062 80.8733 59.6781 80.8047 59.281 80.9205C58.884 81.0365 58.56 81.3248 58.399 81.7057C57.4599 83.925 55.2964 85.3591 52.8871 85.3591C49.5889 85.3591 46.9054 82.6757 46.9054 79.3774C46.9054 78.617 46.2889 78.0004 45.5285 78.0004C44.7681 78.0004 44.1515 78.617 44.1515 79.3774C44.1515 80.6396 44.4229 81.839 44.9067 82.9237C40.3513 84.0007 35.239 84.1534 30.9018 83.3067C25.9776 82.3456 22.6692 80.2285 21.8249 77.4989C21.2882 75.7634 21.4204 74.3223 22.2288 73.0926C23.8837 70.5761 27.8708 69.528 29.8309 69.1533C30.3433 71.0773 31.3424 72.8472 32.7706 74.3049C33.3028 74.8481 34.1745 74.8571 34.7178 74.3249C35.2608 73.7928 35.27 72.921 34.7378 72.3777C33.0937 70.6997 32.1882 68.4815 32.1882 66.1318C32.1882 63.4301 33.4089 60.8994 35.4843 59.2105C36.2223 59.798 37.1553 60.1504 38.1697 60.1504L38.2644 60.1504L38.2644 64.6602C38.2644 65.4206 38.8809 66.0371 39.6414 66.0371C40.4018 66.0371 41.0183 65.4206 41.0183 64.6602L41.0183 60.1504L45.623 60.1504L45.623 66.453C43.9142 67.0293 42.6797 68.6462 42.6797 70.5471C42.6797 72.9294 44.6179 74.8674 47 74.8674C49.3821 74.8674 51.3203 72.9292 51.3203 70.5471C51.3203 68.6462 50.0858 67.0293 48.377 66.453L48.377 60.1504L52.9817 60.1504L52.9817 64.6602C52.9817 65.4206 53.5982 66.0371 54.3586 66.0371C55.1191 66.0371 55.7356 65.4206 55.7356 64.6602L55.7356 60.1504L55.8303 60.1504C58.2126 60.1504 60.1506 58.2122 60.1506 55.83L60.1506 38.1696C60.1506 35.7873 58.2124 33.8493 55.8303 33.8493L55.7356 33.8493L55.7356 29.3395C55.7356 28.579 55.1191 27.9625 54.3586 27.9625C53.5982 27.9625 52.9817 28.579 52.9817 29.3395L52.9817 33.8489L48.377 33.8489L48.377 27.5463C50.0858 26.97 51.3203 25.3531 51.3203 23.4522C51.3203 21.0699 49.3821 19.1319 47 19.1319C44.6179 19.1319 42.6797 21.07 42.6797 23.4522C42.6797 25.3531 43.9142 26.97 45.623 27.5463L45.623 33.8489L41.0183 33.8489L41.0183 29.3391C41.0183 28.5787 40.4018 27.9622 39.6414 27.9622C38.8809 27.9622 38.2644 28.5787 38.2644 29.3391L38.2644 33.8489L38.1697 33.8489C35.7874 33.8489 33.8494 35.7871 33.8494 38.1692L33.8494 55.8297C33.8494 56.1932 33.8951 56.5462 33.9799 56.8839C31.1204 59.0905 29.4341 62.4943 29.4341 66.1317C29.4341 66.2286 29.4387 66.325 29.4411 66.4216C27.133 66.8495 22.1958 68.1387 19.9322 71.5725C19.5454 72.1592 19.2546 72.777 19.057 73.4235C18.6096 73.5459 17.9595 73.585 17.5659 73.585C12.6447 73.585 8.64084 69.5812 8.64084 64.66C8.64084 62.2408 9.59296 59.9761 11.3215 58.2832C11.8649 57.751 11.8739 56.8793 11.3419 56.336C10.8098 55.7928 9.93793 55.7836 9.39468 56.3156C8.29036 57.3972 7.43022 58.6577 6.83703 60.0325C4.43085 59.2295 2.75391 56.9549 2.75391 54.3582C2.75391 51.0599 5.43713 48.3765 8.73558 48.3765L13.8867 48.3765C17.5907 48.3765 20.6042 51.39 20.6042 55.094C20.6042 57.2766 19.5371 59.3314 17.7497 60.5904C17.128 61.0283 16.9791 61.8873 17.4168 62.509C17.8547 63.1308 18.7137 63.2797 19.3355 62.8418C21.8543 61.0676 23.3581 58.1714 23.3581 55.094C23.3581 52.4706 22.2855 50.0935 20.5564 48.3765L29.3398 48.3765C30.1002 48.3765 30.7167 47.76 30.7167 46.9995C30.7167 46.2391 30.1002 45.6226 29.3398 45.6226L8.73558 45.6226C5.43731 45.6226 2.75391 42.9392 2.75391 39.6409C2.75391 37.0431 4.43232 34.7676 6.84015 33.9655C7.4025 35.2683 8.2026 36.4704 9.22338 37.5122C9.75562 38.0552 10.6273 38.0642 11.1706 37.532C11.7136 36.9999 11.7226 36.128 11.1904 35.5848C9.54614 33.9067 8.64066 31.6886 8.64066 29.3389C8.64066 24.4175 12.6445 20.4139 17.5657 20.4139C18.0665 20.4139 18.5657 20.4559 19.0559 20.5382C19.3594 21.5595 19.8894 22.5059 20.6501 23.3552C21.1573 23.9218 22.0279 23.9697 22.5945 23.4623C23.1609 22.955 23.2088 22.0844 22.7016 21.518C21.4869 20.1616 21.1999 18.5205 21.8247 16.5004C22.6691 13.7707 25.9774 11.6539 30.9016 10.6926C35.2652 9.84072 40.4132 10.0012 44.9893 11.0959C44.453 12.2715 44.1514 13.5789 44.1514 14.9485C44.1514 15.7089 44.7679 16.3254 45.5283 16.3254C46.2888 16.3254 46.9053 15.7089 46.9053 14.9485C46.9053 11.6877 49.2975 8.92697 52.3514 8.66333C54.9548 8.4388 57.385 9.89764 58.3988 12.2937ZM47 68.9805C47.8638 68.9805 48.5664 69.6833 48.5664 70.5471C48.5664 71.4109 47.8636 72.1135 47 72.1135C46.1364 72.1135 45.4336 71.4107 45.4336 70.5471C45.4336 69.6831 46.1362 68.9805 47 68.9805ZM55.8303 57.3961L38.1699 57.3961C37.3061 57.3961 36.6035 56.6933 36.6035 55.8297L36.6035 38.1692C36.6035 37.3054 37.3063 36.6028 38.1699 36.6028L55.8303 36.6028C56.6941 36.6028 57.3967 37.3056 57.3967 38.1692L57.3967 55.8297C57.3967 56.6935 56.6939 57.3961 55.8303 57.3961ZM47 25.0188C46.1362 25.0188 45.4336 24.316 45.4336 23.4522C45.4336 22.5884 46.1364 21.8858 47 21.8858C47.8636 21.8858 48.5664 22.5886 48.5664 23.4522C48.5664 24.316 47.8638 25.0188 47 25.0188Z" fill="#5DADE2"/>
<path d="M13.3022 38.822C13.0853 39.5505 13.5003 40.3176 14.2291 40.5346C15.3083 40.8557 16.431 41.0186 17.5661 41.0186C18.3266 41.0186 18.9431 40.402 18.9431 39.6416C18.9431 38.8811 18.3266 38.2646 17.5661 38.2646C16.6972 38.2646 15.8389 38.1403 15.0147 37.8951C14.2859 37.678 13.5192 38.0931 13.3022 38.822Z" fill="#5DADE2"/>
<path d="M39.7363 41.113L39.7363 52.8867C39.7363 53.6472 40.3528 54.2637 41.1133 54.2637L52.887 54.2637C53.6474 54.2637 54.2639 53.6472 54.2639 52.8867L54.2639 41.113C54.2639 40.3526 53.6474 39.7361 52.887 39.7361L41.1133 39.7361C40.3527 39.7361 39.7363 40.3526 39.7363 41.113ZM51.5098 42.49L51.5098 51.5098L42.49 51.5098L42.49 42.49L51.5098 42.49Z" fill="#5DADE2"/>
</g>
<defs>
<clipPath id="clip0">
<rect width="94" height="94" fill="white" transform="translate(0 94) rotate(-90)"/>
</clipPath>
</defs>
</svg>
