<svg width="93" height="84" viewBox="0 0 93 84" fill="none" xmlns="http://www.w3.org/2000/svg">
<path d="M79.6242 23.5037C78.3197 16.8111 72.4134 11.8998 65.4286 11.8998C64.6912 11.8998 63.9396 11.9606 63.1838 12.0811C58.7147 4.81184 50.7385 0.336426 42.132 0.336426C30.0277 0.336426 19.8231 8.9892 17.8309 20.6888C17.1933 20.6114 16.5554 20.5725 15.923 20.5725C7.143 20.5723 0 27.6632 0 36.3791C0 45.0948 7.143 52.1856 15.9228 52.1856H27.5712C28.3235 52.1856 28.9335 51.5801 28.9335 50.8333C28.9335 50.0864 28.3235 49.4809 27.5712 49.4809H15.9228C8.64535 49.4809 2.7246 43.6034 2.7246 36.3791C2.7246 29.1546 8.64535 23.2772 15.9228 23.2772C16.8411 23.2772 17.7757 23.3769 18.7004 23.5736C19.077 23.6537 19.4704 23.5718 19.7826 23.348C20.095 23.1245 20.2976 22.7799 20.3397 22.3996C21.5674 11.3634 30.9359 3.04097 42.1315 3.04097C50.0817 3.04097 57.4279 7.33553 61.3034 14.2488C61.598 14.7746 62.2078 15.0436 62.7981 14.9095C63.6878 14.707 64.5728 14.6044 65.4283 14.6044C71.4221 14.6044 76.4371 19.0598 77.0941 24.968C77.1702 25.6537 77.754 26.172 78.4481 26.172C78.451 26.172 78.4539 26.172 78.4566 26.172C78.4926 26.1718 78.5284 26.1703 78.5661 26.1678C85.026 26.1858 90.2752 31.4079 90.2752 37.8245C90.2752 44.2518 85.0077 49.4809 78.5331 49.4809H55.1425V43.2909C56.8332 42.7249 58.0546 41.1368 58.0546 39.2699V21.9246C58.0546 19.5849 56.137 17.6815 53.7802 17.6815H36.3077C33.9507 17.6815 32.0334 19.5849 32.0334 21.9246V39.2699C32.0334 41.1368 33.2547 42.7247 34.9454 43.2909V49.4809H33.3958C32.6435 49.4809 32.0335 50.0864 32.0335 50.8333C32.0335 51.5801 32.6435 52.1856 33.3958 52.1856H34.9454V58.1535H25.7976C25.2275 56.4752 23.6278 55.2627 21.7471 55.2627C19.3901 55.2627 17.4727 57.1663 17.4727 59.5059C17.4727 61.8455 19.3903 63.7491 21.7471 63.7491C23.6278 63.7491 25.2275 62.5366 25.7976 60.8583H34.9454V67.0483C33.2547 67.6143 32.0334 69.2023 32.0334 71.0693C32.0334 73.4091 33.9509 75.3125 36.3077 75.3125C38.6645 75.3125 40.5821 73.4089 40.5821 71.0693C40.5821 69.2023 39.3607 67.6143 37.67 67.0483V52.1856H43.6818V75.7209C41.9911 76.2869 40.7697 77.8749 40.7697 79.7419C40.7697 82.0817 42.6873 83.9851 45.0441 83.9851C47.4008 83.9851 49.3184 82.0815 49.3184 79.7419C49.3184 77.8749 48.0971 76.2871 46.4064 75.7209V52.1856H52.4181V67.0483C50.7274 67.6143 49.5061 69.2023 49.5061 71.0693C49.5061 73.4091 51.4236 75.3125 53.7804 75.3125C56.1372 75.3125 58.0548 73.4089 58.0548 71.0693C58.0548 69.2023 56.8334 67.6143 55.1427 67.0483V60.8583H64.2905C64.8607 62.5366 66.4604 63.7491 68.3411 63.7491C70.698 63.7491 72.6156 61.8455 72.6156 59.5059C72.6156 57.1663 70.698 55.2627 68.3411 55.2627C66.4604 55.2627 64.8608 56.4752 64.2905 58.1535H55.1427V52.1856H78.5333C86.5104 52.1856 93 45.7432 93 37.8245C92.9998 30.27 87.0932 24.0592 79.6242 23.5037ZM21.7471 61.0443C20.8924 61.0443 20.1973 60.3541 20.1973 59.5059C20.1973 58.6577 20.8926 57.9674 21.7471 57.9674C22.6017 57.9674 23.297 58.6577 23.297 59.5059C23.297 60.3541 22.6017 61.0443 21.7471 61.0443ZM37.8573 71.0693C37.8573 71.9175 37.1621 72.6078 36.3075 72.6078C35.4529 72.6078 34.7578 71.9175 34.7578 71.0693C34.7578 70.2209 35.4531 69.5309 36.3075 69.5309C37.162 69.5309 37.8573 70.2211 37.8573 71.0693ZM43.6816 49.4809H37.6698V43.513H43.6816V49.4809ZM46.5936 79.7419C46.5936 80.5901 45.8983 81.2804 45.0439 81.2804C44.1893 81.2804 43.4941 80.5901 43.4941 79.7419C43.4941 78.8937 44.1894 78.2035 45.0439 78.2035C45.8983 78.2035 46.5936 78.8937 46.5936 79.7419ZM52.4179 49.4809H46.4062V43.513H52.4179V49.4809ZM46.406 40.8083V37.7314H50.8678C51.6202 37.7314 52.2301 37.1259 52.2301 36.3791V30.5973C52.2301 29.8504 51.6202 29.2449 50.8678 29.2449C50.1155 29.2449 49.5055 29.8504 49.5055 30.5973V35.0267H40.5817V26.168H50.8678C51.6202 26.168 52.2301 25.5625 52.2301 24.8156C52.2301 24.0688 51.6202 23.4633 50.8678 23.4633H39.2194C38.4671 23.4633 37.8571 24.0688 37.8571 24.8156V36.3791C37.8571 37.1259 38.4671 37.7314 39.2194 37.7314H43.6812V40.8083H36.3072C35.4525 40.8083 34.7574 40.1181 34.7574 39.2699V21.9246H34.7578C34.7578 21.0763 35.4531 20.3862 36.3075 20.3862H53.7801C54.6347 20.3862 55.3298 21.0764 55.3298 21.9246V39.2699C55.3298 40.1182 54.6345 40.8083 53.7801 40.8083H46.406ZM55.33 71.0693C55.33 71.9175 54.6347 72.6078 53.7802 72.6078C52.9256 72.6078 52.2305 71.9175 52.2305 71.0693C52.2305 70.2209 52.9258 69.5309 53.7802 69.5309C54.6347 69.5309 55.33 70.2211 55.33 71.0693ZM68.3407 57.9673C69.1953 57.9673 69.8906 58.6575 69.8906 59.5057C69.8906 60.3539 69.1953 61.0442 68.3407 61.0442C67.4861 61.0442 66.7909 60.3539 66.7909 59.5057C66.7909 58.6575 67.4861 57.9673 68.3407 57.9673Z" fill="#5DADE2"/>
</svg>
