<svg width="62" height="70" viewBox="0 0 62 70" fill="none" xmlns="http://www.w3.org/2000/svg">
<path d="M59.4521 16.7809L30.7788 33.5618L25.0061 30.2049L47.9442 16.7809L42.1724 13.425L19.2342 26.8489L1.91785 16.7809L30.5911 0.00012207L36.363 3.35611L13.424 16.7809L19.1967 20.1369L42.1348 6.71211L59.4521 16.7809Z" fill="#2874A6"/>
<path d="M28.7671 36.8127L28.7493 43.4502L5.80919 30.1095L5.79054 36.747L28.7298 50.0877L28.6739 70.0001L0 53.3253L0.0186436 46.6879L22.9579 60.0277L22.9766 53.3902L0.0372873 40.0504L0.0932182 20.1371L28.7671 36.8127Z" fill="#1B4F72"/>
<path d="M61.2767 20.1371L61.2953 26.7746L38.356 40.1144L38.3747 46.7519L61.314 33.4121L61.3699 53.3245L32.696 70.0001L32.6774 63.3626L55.6167 50.022L55.598 43.3845L32.6587 56.7252L32.6028 36.8119L61.2767 20.1371Z" fill="#5DADE2"/>
</svg>
