<svg width="94" height="93" viewBox="0 0 94 93" fill="none" xmlns="http://www.w3.org/2000/svg">
<path d="M82.3758 42.3877C72.7588 31.8313 60.1955 26.0176 46.9999 26.0176C33.8042 26.0176 21.2409 31.8313 11.6239 42.3877C9.66459 44.5385 9.66459 47.7825 11.6239 49.9333C21.2409 60.4899 33.8042 66.3036 46.9999 66.3036C60.1955 66.3036 72.7588 60.4899 82.3758 49.9333C84.3351 47.7825 84.3351 44.5385 82.3758 42.3877ZM80.3234 48.13C71.2359 58.1052 59.4012 63.5989 46.9999 63.5989C34.5985 63.5989 22.7638 58.1052 13.6763 48.13C12.6704 47.0256 12.6704 45.2954 13.6763 44.1912C22.7638 34.216 34.5985 28.7223 46.9999 28.7223C59.4012 28.7223 71.2359 34.216 80.3234 44.1912C81.3293 45.2956 81.3293 47.0258 80.3234 48.13Z" fill="#85C1E9"/>
<path d="M91.151 13.0088H80.849C80.0886 13.0088 79.472 13.6143 79.472 14.3612C79.472 15.108 80.0886 15.7135 80.849 15.7135H91.151C91.2033 15.7135 91.2457 15.7552 91.2457 15.8066V25.9246C91.2457 26.6715 91.8622 27.277 92.6226 27.277C93.3831 27.277 93.9996 26.6715 93.9996 25.9246V15.8066C93.9996 14.264 92.7218 13.0088 91.151 13.0088Z" fill="#85C1E9"/>
<path d="M13.1506 13.0088H2.84864C1.27781 13.0088 0 14.264 0 15.8066V25.9246C0 26.6715 0.616508 27.277 1.37695 27.277C2.1374 27.277 2.75391 26.6715 2.75391 25.9246V15.8066C2.75391 15.7552 2.79632 15.7135 2.84864 15.7135H13.1506C13.9111 15.7135 14.5276 15.108 14.5276 14.3612C14.5276 13.6143 13.9111 13.0088 13.1506 13.0088Z" fill="#85C1E9"/>
<path d="M13.1506 76.6079H2.84864C2.79632 76.6079 2.75391 76.5662 2.75391 76.5148V66.3968C2.75391 65.6499 2.1374 65.0444 1.37695 65.0444C0.616508 65.0444 0 65.6499 0 66.3968V76.5148C0 78.0576 1.27781 79.3126 2.84864 79.3126H13.1506C13.9111 79.3126 14.5276 78.7071 14.5276 77.9602C14.5276 77.2134 13.9111 76.6079 13.1506 76.6079Z" fill="#85C1E9"/>
<path d="M92.6226 65.0444C91.8622 65.0444 91.2457 65.6499 91.2457 66.3968V76.5148C91.2457 76.5662 91.2033 76.6079 91.151 76.6079H80.849C80.0886 76.6079 79.472 77.2134 79.472 77.9602C79.472 78.7071 80.0886 79.3126 80.849 79.3126H91.151C92.7218 79.3126 93.9996 78.0576 93.9996 76.5148V66.3968C93.9996 65.6499 93.3831 65.0444 92.6226 65.0444Z" fill="#85C1E9"/>
<path d="M74.9629 13.0088H57.3022C56.5418 13.0088 55.9253 13.6143 55.9253 14.3612C55.9253 15.108 56.5418 15.7135 57.3022 15.7135H74.9629C75.7233 15.7135 76.3398 15.108 76.3398 14.3612C76.3398 13.6143 75.7233 13.0088 74.9629 13.0088Z" fill="#85C1E9"/>
<path d="M51.4147 13.0088H48.4714C47.7109 13.0088 47.0944 13.6143 47.0944 14.3612C47.0944 15.108 47.7109 15.7135 48.4714 15.7135H51.4147C52.1752 15.7135 52.7917 15.108 52.7917 14.3612C52.7917 13.6143 52.1752 13.0088 51.4147 13.0088Z" fill="#85C1E9"/>
<path d="M74.9624 18.7905H63.1887C62.4283 18.7905 61.8118 19.396 61.8118 20.1429C61.8118 20.8898 62.4283 21.4953 63.1887 21.4953H74.9624C75.7228 21.4953 76.3393 20.8898 76.3393 20.1429C76.3393 19.396 75.7228 18.7905 74.9624 18.7905Z" fill="#85C1E9"/>
<path d="M39.6417 76.6079H19.0377C18.2773 76.6079 17.6608 77.2134 17.6608 77.9603C17.6608 78.7071 18.2773 79.3126 19.0377 79.3126H39.6417C40.4021 79.3126 41.0187 78.7071 41.0187 77.9603C41.0187 77.2134 40.4023 76.6079 39.6417 76.6079Z" fill="#85C1E9"/>
<path d="M24.9246 70.8262H19.0377C18.2773 70.8262 17.6608 71.4317 17.6608 72.1785C17.6608 72.9254 18.2773 73.5309 19.0377 73.5309H24.9246C25.6851 73.5309 26.3016 72.9254 26.3016 72.1785C26.3016 71.4317 25.6851 70.8262 24.9246 70.8262Z" fill="#85C1E9"/>
<path d="M33.7544 70.8262H30.811C30.0506 70.8262 29.4341 71.4317 29.4341 72.1785C29.4341 72.9254 30.0506 73.5309 30.811 73.5309H33.7544C34.5149 73.5309 35.1314 72.9254 35.1314 72.1785C35.1314 71.4317 34.5149 70.8262 33.7544 70.8262Z" fill="#85C1E9"/>
<path d="M7.26367 18.7905C6.50323 18.7905 5.88672 19.396 5.88672 20.1429V25.9245C5.88672 26.6714 6.50323 27.2769 7.26367 27.2769C8.02412 27.2769 8.64062 26.6714 8.64062 25.9245V20.1429C8.64062 19.396 8.02412 18.7905 7.26367 18.7905Z" fill="#85C1E9"/>
<path d="M13.151 18.7905C12.3906 18.7905 11.774 19.396 11.774 20.1429V23.0337C11.774 23.7806 12.3906 24.3861 13.151 24.3861C13.9114 24.3861 14.528 23.7806 14.528 23.0337V20.1429C14.528 19.396 13.9114 18.7905 13.151 18.7905Z" fill="#85C1E9"/>
<path d="M83.7924 65.0444C81.4102 65.0444 79.472 66.9478 79.472 69.2876C79.472 71.6274 81.4102 73.5308 83.7924 73.5308C86.1745 73.5308 88.1127 71.6272 88.1127 69.2876C88.1127 66.948 86.1745 65.0444 83.7924 65.0444ZM83.7924 70.8261C82.9288 70.8261 82.226 70.1358 82.226 69.2876C82.226 68.4394 82.9288 67.7492 83.7924 67.7492C84.6562 67.7492 85.3588 68.4394 85.3588 69.2876C85.3588 70.1358 84.656 70.8261 83.7924 70.8261Z" fill="#85C1E9"/>
<path d="M70.5471 44.8082H61.5553C60.8587 37.5214 54.598 31.7993 46.9998 31.7993C39.4015 31.7993 33.1406 37.5214 32.4443 44.8082H23.4524C22.6919 44.8082 22.0754 45.4137 22.0754 46.1605C22.0754 46.9074 22.6919 47.5129 23.4524 47.5129H39.8686C40.5141 50.8019 43.4654 53.2945 46.9998 53.2945C50.5341 53.2945 53.4856 50.8019 54.1309 47.5129H58.7857C58.1009 53.3052 53.078 57.817 46.9998 57.817C42.4608 57.817 38.3855 55.3353 36.3642 51.3403C36.0258 50.6715 35.1995 50.3987 34.5183 50.731C33.8374 51.0633 33.5596 51.8751 33.8981 52.5439C36.388 57.4649 41.4082 60.5218 46.9999 60.5218C54.5982 60.5218 60.8591 54.7996 61.5554 47.5129H70.5473C71.3078 47.5129 71.9243 46.9074 71.9243 46.1605C71.9243 45.4137 71.3076 44.8082 70.5471 44.8082ZM46.9998 50.5898C44.9931 50.5898 43.2891 49.2957 42.7057 47.5129H51.294C50.7104 49.2957 49.0064 50.5898 46.9998 50.5898ZM42.7057 44.8082C43.2891 43.0254 44.9933 41.7313 46.9998 41.7313C47.3848 41.7313 47.7666 41.7787 48.1346 41.8723C48.8706 42.0596 49.622 41.6252 49.8128 40.9022C50.0034 40.1791 49.5611 39.4413 48.825 39.2539C48.2317 39.103 47.6176 39.0265 46.9998 39.0265C43.4654 39.0265 40.5139 41.5192 39.8686 44.8082H35.2138C35.8986 39.0159 40.9215 34.504 46.9998 34.504C53.078 34.504 58.1009 39.0159 58.7857 44.8082H42.7057Z" fill="#85C1E9"/>
</svg>
